<svg xmlns="http://www.w3.org/2000/svg" viewBox="0 0 256 256">
  <rect width="256" height="256" fill="none"/>
  
  <!-- Base do novelo (fundo azul) -->
  <path d="M213.9,128A86.2,86.2,0,0,1,128,214.2C78.4,213.4,41.9,174,41.8,128,41.7,82.4,82.4,41.7,128,41.8,175.7,41.9,214.7,80.3,213.9,128Z" fill="#3ABFB5" stroke="#3ABFB5" stroke-linecap="round" stroke-linejoin="round" stroke-width="8"/>
  
  <!-- Fios cruzando o novelo (em cor clara para contraste) -->
  <path d="M42,120C88,104,136,88,186,64" fill="none" stroke="#FAF8F5" stroke-linecap="round" stroke-linejoin="round" stroke-width="16"/>
  <path d="M50,168c48-16,96-32,146-56" fill="none" stroke="#FAF8F5" stroke-linecap="round" stroke-linejoin="round" stroke-width="16"/>
  <path d="M104,44c-16,48-32,96-56,146" fill="none" stroke="#FAF8F5" stroke-linecap="round" stroke-linejoin="round" stroke-width="16"/>
  <path d="M152,50c-16,48-32,96-56,146" fill="none" stroke="#FAF8F5" stroke-linecap="round" stroke-linejoin="round" stroke-width="16"/>
  <path d="M200,88c-16,48-32,96-56,146" fill="none" stroke="#FAF8F5" stroke-linecap="round" stroke-linejoin="round" stroke-width="16"/>
  
  <!-- Fio solto para fora do novelo -->
  <path d="M128,214c0,16,16,26,40,26h40" fill="none" stroke="#3ABFB5" stroke-linecap="round" stroke-linejoin="round" stroke-width="20"/>
</svg>
